<?xml version="1.0" encoding="UTF-8" standalone="no"?>
<svg
   xmlns:dc="http://purl.org/dc/elements/1.1/"
   xmlns:cc="http://creativecommons.org/ns#"
   xmlns:rdf="http://www.w3.org/1999/02/22-rdf-syntax-ns#"
   xmlns:svg="http://www.w3.org/2000/svg"
   xmlns="http://www.w3.org/2000/svg"
   xmlns:sodipodi="http://sodipodi.sourceforge.net/DTD/sodipodi-0.dtd"
   xmlns:inkscape="http://www.inkscape.org/namespaces/inkscape"
   version="1.1"
   id="Capa_1"
   x="0px"
   y="0px"
   width="478.125px"
   height="478.125px"
   viewBox="0 0 478.125 478.125"
   style="enable-background:new 0 0 478.125 478.125;"
   xml:space="preserve"
   sodipodi:docname="sad.svg"
   inkscape:version="1.0.2-2 (e86c870879, 2021-01-15)"><metadata
   id="metadata213"><rdf:RDF><cc:Work
       rdf:about=""><dc:format>image/svg+xml</dc:format><dc:type
         rdf:resource="http://purl.org/dc/dcmitype/StillImage" /><dc:title></dc:title></cc:Work></rdf:RDF></metadata><defs
   id="defs211" /><sodipodi:namedview
   pagecolor="#ffffff"
   bordercolor="#666666"
   borderopacity="1"
   objecttolerance="10"
   gridtolerance="10"
   guidetolerance="10"
   inkscape:pageopacity="0"
   inkscape:pageshadow="2"
   inkscape:window-width="1920"
   inkscape:window-height="991"
   id="namedview209"
   showgrid="false"
   inkscape:zoom="1.7150327"
   inkscape:cx="239.0625"
   inkscape:cy="250.48628"
   inkscape:window-x="47"
   inkscape:window-y="1341"
   inkscape:window-maximized="1"
   inkscape:current-layer="Capa_1" />
<g
   id="g176"
   style="fill:#ffffff">
	<path
   d="M239.062,0C107.1,0,0,107.1,0,239.062c0,131.963,107.1,239.062,239.062,239.062c131.963,0,239.062-107.1,239.062-239.062   C478.125,107.1,371.025,0,239.062,0z M153,153c11.475,0,19.125,7.65,19.125,19.125S164.475,191.25,153,191.25   s-19.125-7.65-19.125-19.125S141.525,153,153,153z M344.25,363.375c0,0-38.25-38.25-105.188-38.25s-105.188,38.25-105.188,38.25   V344.25c0,0,38.25-38.25,105.188-38.25s105.188,38.25,105.188,38.25V363.375z M325.125,191.25c-11.475,0-19.125-7.65-19.125-19.125   S313.65,153,325.125,153s19.125,7.65,19.125,19.125S336.6,191.25,325.125,191.25z"
   id="path174"
   style="fill:#ffffff" />
</g>
<g
   id="g178">
</g>
<g
   id="g180">
</g>
<g
   id="g182">
</g>
<g
   id="g184">
</g>
<g
   id="g186">
</g>
<g
   id="g188">
</g>
<g
   id="g190">
</g>
<g
   id="g192">
</g>
<g
   id="g194">
</g>
<g
   id="g196">
</g>
<g
   id="g198">
</g>
<g
   id="g200">
</g>
<g
   id="g202">
</g>
<g
   id="g204">
</g>
<g
   id="g206">
</g>
</svg>
