<?xml version="1.0" encoding="UTF-8" standalone="no"?>
<svg
   xmlns:dc="http://purl.org/dc/elements/1.1/"
   xmlns:cc="http://creativecommons.org/ns#"
   xmlns:rdf="http://www.w3.org/1999/02/22-rdf-syntax-ns#"
   xmlns:svg="http://www.w3.org/2000/svg"
   xmlns="http://www.w3.org/2000/svg"
   xmlns:sodipodi="http://sodipodi.sourceforge.net/DTD/sodipodi-0.dtd"
   xmlns:inkscape="http://www.inkscape.org/namespaces/inkscape"
   version="1.1"
   id="Capa_1"
   x="0px"
   y="0px"
   width="478.125px"
   height="478.125px"
   viewBox="0 0 478.125 478.125"
   style="enable-background:new 0 0 478.125 478.125;"
   xml:space="preserve"
   sodipodi:docname="smiling.svg"
   inkscape:version="1.0.2-2 (e86c870879, 2021-01-15)"><metadata
   id="metadata295"><rdf:RDF><cc:Work
       rdf:about=""><dc:format>image/svg+xml</dc:format><dc:type
         rdf:resource="http://purl.org/dc/dcmitype/StillImage" /><dc:title></dc:title></cc:Work></rdf:RDF></metadata><defs
   id="defs293" /><sodipodi:namedview
   pagecolor="#ffffff"
   bordercolor="#666666"
   borderopacity="1"
   objecttolerance="10"
   gridtolerance="10"
   guidetolerance="10"
   inkscape:pageopacity="0"
   inkscape:pageshadow="2"
   inkscape:window-width="1920"
   inkscape:window-height="991"
   id="namedview291"
   showgrid="false"
   inkscape:zoom="1.7150327"
   inkscape:cx="239.0625"
   inkscape:cy="319.29943"
   inkscape:window-x="47"
   inkscape:window-y="1341"
   inkscape:window-maximized="1"
   inkscape:current-layer="Capa_1" />
<g
   id="g258"
   style="fill:#ffffff">
	<path
   d="M239.062,0C107.1,0,0,107.1,0,239.062c0,131.963,107.1,239.062,239.062,239.062c131.963,0,239.062-107.1,239.062-239.062   C478.125,107.1,371.025,0,239.062,0z M89.888,187.425l53.55-53.55l53.55,53.55L183.6,200.812l-40.163-40.163l-40.163,40.163   L89.888,187.425z M344.25,325.125c0,0-38.25,38.25-105.188,38.25s-105.188-38.25-105.188-38.25V306c0,0,38.25,38.25,105.188,38.25   S344.25,306,344.25,306V325.125z M374.85,200.812l-40.162-40.163l-40.162,40.163l-13.388-13.388l53.55-53.55l53.55,53.55   L374.85,200.812z"
   id="path256"
   style="fill:#ffffff" />
</g>
<g
   id="g260">
</g>
<g
   id="g262">
</g>
<g
   id="g264">
</g>
<g
   id="g266">
</g>
<g
   id="g268">
</g>
<g
   id="g270">
</g>
<g
   id="g272">
</g>
<g
   id="g274">
</g>
<g
   id="g276">
</g>
<g
   id="g278">
</g>
<g
   id="g280">
</g>
<g
   id="g282">
</g>
<g
   id="g284">
</g>
<g
   id="g286">
</g>
<g
   id="g288">
</g>
</svg>
